<svg id="Layer_10" data-name="Layer 10" xmlns="http://www.w3.org/2000/svg" viewBox="0 0 22.5 15"><defs><style>.cls-1{fill:#fffce5;}.cls-2{fill:#c2827e;}</style></defs><rect class="cls-1" x="0.37" y="0.38" width="21.75" height="14.25"/><path class="cls-2" d="M1236.48,538.12v13.5h-21v-13.5h21m.75-.75h-22.5v15h22.5v-15Z" transform="translate(-1214.73 -537.37)"/><polygon class="cls-1" points="1.13 14.62 11.25 7.09 21.37 14.62 1.13 14.62"/><path class="cls-2" d="M1226,544.93l5.18,3.86,3.8,2.83h-18l3.81-2.83,5.18-3.86m0-.93-5.63,4.19-5.62,4.18h22.5l-5.63-4.18L1226,544Z" transform="translate(-1214.73 -537.37)"/><polygon class="cls-1" points="0.94 0.38 21.56 0.38 11.25 10.11 0.94 0.38"/><path class="cls-2" d="M1235.34,538.12l-4.25,4L1226,547l-5.11-4.83-4.25-4h18.72m1.89-.75h-22.5l5.62,5.32L1226,548l5.62-5.31,5.63-5.32Z" transform="translate(-1214.73 -537.37)"/></svg>