<svg xmlns="http://www.w3.org/2000/svg" width="150" height="148" viewBox="0 0 150 148">
  <defs>
    <style>
      .cls-1 {
        fill: #e09792;
        fill-rule: evenodd;
      }
    </style>
  </defs>
  <path id="Shape_1_copy_5" data-name="Shape 1 copy 5" class="cls-1" d="M76.5,66A8.5,8.5,0,1,1,68,74.5,8.5,8.5,0,0,1,76.5,66ZM14.125,64.065A10.872,10.872,0,1,1,3.253,74.936,10.871,10.871,0,0,1,14.125,64.065ZM70,72s-42.424-4.823-51-8c-5.235-1.939-4,21-4,21s45.955-5.65,54-7C71.648,77.554,70,72,70,72ZM136.292,85.62a10.872,10.872,0,1,1,10.871-10.872A10.872,10.872,0,0,1,136.292,85.62ZM80.417,77.685s42.424,4.823,51,8c5.234,1.939,4-21,4-21s-45.956,5.65-54,7C78.769,72.13,80.417,77.685,80.417,77.685ZM85.808,13.88A10.9,10.9,0,1,1,74.906,3,10.891,10.891,0,0,1,85.808,13.88ZM77.852,69.793s4.837-42.453,8.023-51.034c1.945-5.238-21.06-4-21.06-4s5.666,45.986,7.02,54.035C72.28,71.441,77.852,69.793,77.852,69.793Zm-13.66,66.334a10.9,10.9,0,1,1,10.9,10.878A10.89,10.89,0,0,1,64.191,136.127Zm7.957-55.911s-4.837,42.451-8.023,51.033c-1.945,5.237,21.06,4,21.06,4s-5.666-45.986-7.02-54.036C77.72,78.567,72.148,80.216,72.148,80.216ZM40.673,22.846a10.9,10.9,0,1,1-15.4-.259A10.89,10.89,0,0,1,40.673,22.846ZM73.77,68.6s-26-33.908-29.663-42.3C41.87,21.19,26.173,38.052,26.173,38.052S62.182,67.21,68.745,72.063C70.906,73.66,73.77,68.6,73.77,68.6ZM110,125.826a10.9,10.9,0,1,1,15.4.258A10.891,10.891,0,0,1,110,125.826ZM76.9,80.066s26,33.908,29.663,42.295c2.238,5.12,17.934-11.743,17.934-11.743S88.492,81.462,81.928,76.609C79.768,75.011,76.9,80.066,76.9,80.066ZM124.5,39.5a10.9,10.9,0,1,1,.108-15.4A10.891,10.891,0,0,1,124.5,39.5ZM79.065,73.047s33.653-26.327,42-30.074c5.1-2.288-11.917-17.82-11.917-17.82s-28.8,36.291-33.594,42.9C73.982,70.231,79.065,73.047,79.065,73.047ZM22.2,109.833a10.9,10.9,0,1,1-.108,15.4A10.891,10.891,0,0,1,22.2,109.833ZM67.635,76.291s-33.652,26.326-42,30.073c-5.1,2.288,11.917,17.82,11.917,17.82s28.8-36.291,33.593-42.9C72.718,79.106,67.635,76.291,67.635,76.291Z"/>
</svg>
